<svg width="55" height="55" viewBox="0 0 55 55" fill="none" xmlns="http://www.w3.org/2000/svg">
<path d="M5.29376 25.7629C5.20952 25.4251 5.20333 25.0726 5.27566 24.7321C5.34799 24.3916 5.49694 24.0721 5.7112 23.7977C5.92547 23.5234 6.19941 23.3015 6.51225 23.1488C6.82508 22.9961 7.16858 22.9167 7.51668 22.9166H47.4833C47.8314 22.9167 48.1749 22.9961 48.4878 23.1488C48.8006 23.3015 49.0746 23.5234 49.2888 23.7977C49.5031 24.0721 49.652 24.3916 49.7244 24.7321C49.7967 25.0726 49.7905 25.4251 49.7063 25.7629L45.5561 42.3614C45.3082 43.353 44.736 44.2332 43.9305 44.8623C43.125 45.4914 42.1323 45.8331 41.1102 45.8333H13.8898C12.8677 45.8331 11.8751 45.4914 11.0695 44.8623C10.264 44.2332 9.69182 43.353 9.44397 42.3614L5.29376 25.7652V25.7629Z" stroke="#FFFCFC" stroke-width="2" stroke-linejoin="round"/>
<path d="M20.625 32.0833V36.6666" stroke="#FFFCFC" stroke-width="2" stroke-linecap="round"/>
<path d="M34.375 32.0833V36.6666" stroke="#FFFCFC" stroke-width="2" stroke-linecap="round"/>
<path d="M13.75 22.9166L22.9167 9.16663" stroke="#FFFCFC" stroke-width="2" stroke-linecap="round"/>
<path d="M41.25 22.9166L32.0834 9.16663" stroke="#FFFCFC" stroke-width="2" stroke-linecap="round"/>
</svg>
