<svg width="116" height="96" viewBox="0 0 116 96" fill="none" xmlns="http://www.w3.org/2000/svg">
<path d="M1.17401 43.3959C0.958813 42.5331 0.943 41.6326 1.12777 40.7628C1.31254 39.8929 1.69304 39.0766 2.24038 38.3758C2.78772 37.675 3.48752 37.1081 4.28667 36.7181C5.08582 36.3281 5.96332 36.1252 6.85255 36.125H108.949C109.838 36.1252 110.716 36.3281 111.515 36.7181C112.314 37.1081 113.014 37.675 113.561 38.3758C114.109 39.0766 114.489 39.8929 114.674 40.7628C114.859 41.6326 114.843 42.5331 114.628 43.3959L104.026 85.7976C103.393 88.3306 101.931 90.5793 99.8733 92.1862C97.8156 93.7932 95.2797 94.6663 92.6688 94.6667H23.133C20.5221 94.6663 17.9862 93.7932 15.9284 92.1862C13.8707 90.5793 12.409 88.3306 11.7759 85.7976L1.17401 43.4017V43.3959Z" stroke="#FFFCFC" stroke-width="2" stroke-linejoin="round"/>
<path d="M40.3386 59.5417V71.2501" stroke="#FFFCFC" stroke-width="2" stroke-linecap="round"/>
<path d="M75.4636 59.5417V71.2501" stroke="#FFFCFC" stroke-width="2" stroke-linecap="round"/>
<path d="M22.7761 36.125L46.1928 1" stroke="#FFFCFC" stroke-width="2" stroke-linecap="round"/>
<path d="M93.0258 36.125L69.6091 1" stroke="#FFFCFC" stroke-width="2" stroke-linecap="round"/>
</svg>
