<svg width="313" height="88" viewBox="0 0 313 88" fill="none" xmlns="http://www.w3.org/2000/svg">
<path d="M22.3145 37.8447C22.3145 37.1123 22.2005 36.4613 21.9727 35.8916C21.7611 35.3219 21.3786 34.8011 20.8252 34.3291C20.2718 33.8571 19.4906 33.4014 18.4814 32.9619C17.4886 32.5062 16.2191 32.0423 14.6729 31.5703C12.9801 31.0495 11.4176 30.4717 9.98535 29.8369C8.56934 29.1859 7.33236 28.4372 6.27441 27.5908C5.21647 26.7282 4.39453 25.7435 3.80859 24.6367C3.22266 23.5137 2.92969 22.2197 2.92969 20.7549C2.92969 19.3063 3.23079 17.988 3.83301 16.7998C4.4515 15.6117 5.32227 14.5863 6.44531 13.7236C7.58464 12.8447 8.92741 12.1693 10.4736 11.6973C12.0199 11.209 13.7288 10.9648 15.6006 10.9648C18.2373 10.9648 20.5078 11.4531 22.4121 12.4297C24.3327 13.4062 25.8057 14.7165 26.8311 16.3604C27.8727 18.0042 28.3936 19.819 28.3936 21.8047H22.3145C22.3145 20.6328 22.0622 19.5993 21.5576 18.7041C21.0693 17.7926 20.3206 17.0765 19.3115 16.5557C18.3187 16.0348 17.0573 15.7744 15.5273 15.7744C14.0788 15.7744 12.8743 15.9941 11.9141 16.4336C10.9538 16.873 10.2376 17.4671 9.76562 18.2158C9.29362 18.9645 9.05762 19.8109 9.05762 20.7549C9.05762 21.4222 9.21224 22.0326 9.52148 22.5859C9.83073 23.123 10.3027 23.6276 10.9375 24.0996C11.5723 24.5553 12.3698 24.9867 13.3301 25.3936C14.2904 25.8005 15.4215 26.1911 16.7236 26.5654C18.693 27.1514 20.4102 27.8024 21.875 28.5186C23.3398 29.2184 24.5605 30.016 25.5371 30.9111C26.5137 31.8063 27.2461 32.8236 27.7344 33.9629C28.2227 35.0859 28.4668 36.3636 28.4668 37.7959C28.4668 39.2933 28.1657 40.6442 27.5635 41.8486C26.9613 43.0368 26.0986 44.054 24.9756 44.9004C23.8688 45.7305 22.5342 46.3734 20.9717 46.8291C19.4255 47.2686 17.7002 47.4883 15.7959 47.4883C14.0869 47.4883 12.4023 47.2604 10.7422 46.8047C9.09831 46.349 7.60091 45.6572 6.25 44.7295C4.89909 43.7855 3.82487 42.6136 3.02734 41.2139C2.22982 39.7979 1.83105 38.1458 1.83105 36.2578H7.95898C7.95898 37.4134 8.1543 38.3981 8.54492 39.2119C8.95182 40.0257 9.51335 40.693 10.2295 41.2139C10.9456 41.7184 11.7757 42.0928 12.7197 42.3369C13.68 42.5811 14.7054 42.7031 15.7959 42.7031C17.2282 42.7031 18.4245 42.4997 19.3848 42.0928C20.3613 41.6859 21.0938 41.1162 21.582 40.3838C22.0703 39.6514 22.3145 38.805 22.3145 37.8447ZM39.1113 9.5V47H33.252V9.5H39.1113ZM38.0859 32.8154L36.1816 32.791C36.1979 30.9681 36.4502 29.2835 36.9385 27.7373C37.443 26.1911 38.1429 24.8483 39.0381 23.709C39.9495 22.5534 41.04 21.6663 42.3096 21.0479C43.5791 20.4131 44.987 20.0957 46.5332 20.0957C47.8353 20.0957 49.0072 20.2747 50.0488 20.6328C51.1068 20.9909 52.0182 21.5687 52.7832 22.3662C53.5482 23.1475 54.126 24.1729 54.5166 25.4424C54.9235 26.6956 55.127 28.2256 55.127 30.0322V47H49.2188V29.9834C49.2188 28.7139 49.0316 27.7048 48.6572 26.9561C48.2992 26.2074 47.7702 25.6702 47.0703 25.3447C46.3704 25.0029 45.516 24.832 44.5068 24.832C43.4489 24.832 42.513 25.0436 41.6992 25.4668C40.9017 25.89 40.2344 26.4678 39.6973 27.2002C39.1602 27.9326 38.7533 28.779 38.4766 29.7393C38.2161 30.6995 38.0859 31.7249 38.0859 32.8154ZM59.9609 34.085V33.5234C59.9609 31.6191 60.2376 29.8532 60.791 28.2256C61.3444 26.5817 62.1419 25.1576 63.1836 23.9531C64.2415 22.7324 65.5273 21.7884 67.041 21.1211C68.571 20.4375 70.2962 20.0957 72.2168 20.0957C74.1536 20.0957 75.8789 20.4375 77.3926 21.1211C78.9225 21.7884 80.2165 22.7324 81.2744 23.9531C82.3324 25.1576 83.138 26.5817 83.6914 28.2256C84.2448 29.8532 84.5215 31.6191 84.5215 33.5234V34.085C84.5215 35.9893 84.2448 37.7552 83.6914 39.3828C83.138 41.0104 82.3324 42.4346 81.2744 43.6553C80.2165 44.8597 78.9307 45.8037 77.417 46.4873C75.9033 47.1546 74.1862 47.4883 72.2656 47.4883C70.3288 47.4883 68.5954 47.1546 67.0654 46.4873C65.5518 45.8037 64.266 44.8597 63.208 43.6553C62.1501 42.4346 61.3444 41.0104 60.791 39.3828C60.2376 37.7552 59.9609 35.9893 59.9609 34.085ZM65.8447 33.5234V34.085C65.8447 35.2731 65.9668 36.3962 66.2109 37.4541C66.4551 38.512 66.8376 39.4398 67.3584 40.2373C67.8792 41.0348 68.5465 41.6615 69.3604 42.1172C70.1742 42.5729 71.1426 42.8008 72.2656 42.8008C73.3561 42.8008 74.3001 42.5729 75.0977 42.1172C75.9115 41.6615 76.5788 41.0348 77.0996 40.2373C77.6204 39.4398 78.0029 38.512 78.2471 37.4541C78.5075 36.3962 78.6377 35.2731 78.6377 34.085V33.5234C78.6377 32.3516 78.5075 31.2448 78.2471 30.2031C78.0029 29.1452 77.6123 28.2093 77.0752 27.3955C76.5544 26.5817 75.887 25.9469 75.0732 25.4912C74.2757 25.0192 73.3236 24.7832 72.2168 24.7832C71.11 24.7832 70.1497 25.0192 69.3359 25.4912C68.5384 25.9469 67.8792 26.5817 67.3584 27.3955C66.8376 28.2093 66.4551 29.1452 66.2109 30.2031C65.9668 31.2448 65.8447 32.3516 65.8447 33.5234ZM95.3613 25.6621V57.1562H89.4775V20.584H94.8975L95.3613 25.6621ZM112.573 33.5479V34.0605C112.573 35.9811 112.345 37.7633 111.89 39.4072C111.45 41.0348 110.791 42.459 109.912 43.6797C109.049 44.8841 107.983 45.82 106.714 46.4873C105.444 47.1546 103.979 47.4883 102.319 47.4883C100.675 47.4883 99.235 47.1872 97.998 46.585C96.7773 45.9665 95.7438 45.0957 94.8975 43.9727C94.0511 42.8496 93.3675 41.5312 92.8467 40.0176C92.3421 38.4876 91.984 36.8112 91.7725 34.9883V33.0107C91.984 31.0739 92.3421 29.3161 92.8467 27.7373C93.3675 26.1585 94.0511 24.7995 94.8975 23.6602C95.7438 22.5208 96.7773 21.6419 97.998 21.0234C99.2188 20.4049 100.643 20.0957 102.271 20.0957C103.931 20.0957 105.404 20.4212 106.689 21.0723C107.975 21.707 109.058 22.6185 109.937 23.8066C110.815 24.9785 111.475 26.3945 111.914 28.0547C112.354 29.6986 112.573 31.5296 112.573 33.5479ZM106.689 34.0605V33.5479C106.689 32.3271 106.576 31.196 106.348 30.1543C106.12 29.0964 105.762 28.1686 105.273 27.3711C104.785 26.5736 104.159 25.9551 103.394 25.5156C102.645 25.0599 101.742 24.832 100.684 24.832C99.6419 24.832 98.7467 25.0111 97.998 25.3691C97.2493 25.7109 96.6227 26.1911 96.1182 26.8096C95.6136 27.4281 95.223 28.1523 94.9463 28.9824C94.6696 29.7962 94.4743 30.6833 94.3604 31.6436V36.3799C94.5557 37.5518 94.8893 38.626 95.3613 39.6025C95.8333 40.5791 96.5007 41.3604 97.3633 41.9463C98.2422 42.516 99.3652 42.8008 100.732 42.8008C101.79 42.8008 102.694 42.5729 103.442 42.1172C104.191 41.6615 104.801 41.0348 105.273 40.2373C105.762 39.4235 106.12 38.4876 106.348 37.4297C106.576 36.3717 106.689 35.2487 106.689 34.0605Z" fill="#4726CB"/>
<path d="M135.864 26.2236V47H129.98V20.584H135.522L135.864 26.2236ZM134.814 32.8154L132.91 32.791C132.926 30.9193 133.187 29.2021 133.691 27.6396C134.212 26.0771 134.928 24.7344 135.84 23.6113C136.768 22.4883 137.874 21.6257 139.16 21.0234C140.446 20.4049 141.878 20.0957 143.457 20.0957C144.727 20.0957 145.874 20.2747 146.899 20.6328C147.941 20.9746 148.828 21.5361 149.561 22.3174C150.309 23.0986 150.879 24.1159 151.27 25.3691C151.66 26.6061 151.855 28.1279 151.855 29.9346V47H145.947V29.9102C145.947 28.6406 145.76 27.6396 145.386 26.9072C145.028 26.1585 144.499 25.6296 143.799 25.3203C143.115 24.9948 142.261 24.832 141.235 24.832C140.226 24.832 139.323 25.0436 138.525 25.4668C137.728 25.89 137.052 26.4678 136.499 27.2002C135.962 27.9326 135.547 28.779 135.254 29.7393C134.961 30.6995 134.814 31.7249 134.814 32.8154ZM156.738 34.085V33.5234C156.738 31.6191 157.015 29.8532 157.568 28.2256C158.122 26.5817 158.919 25.1576 159.961 23.9531C161.019 22.7324 162.305 21.7884 163.818 21.1211C165.348 20.4375 167.074 20.0957 168.994 20.0957C170.931 20.0957 172.656 20.4375 174.17 21.1211C175.7 21.7884 176.994 22.7324 178.052 23.9531C179.11 25.1576 179.915 26.5817 180.469 28.2256C181.022 29.8532 181.299 31.6191 181.299 33.5234V34.085C181.299 35.9893 181.022 37.7552 180.469 39.3828C179.915 41.0104 179.11 42.4346 178.052 43.6553C176.994 44.8597 175.708 45.8037 174.194 46.4873C172.681 47.1546 170.964 47.4883 169.043 47.4883C167.106 47.4883 165.373 47.1546 163.843 46.4873C162.329 45.8037 161.043 44.8597 159.985 43.6553C158.927 42.4346 158.122 41.0104 157.568 39.3828C157.015 37.7552 156.738 35.9893 156.738 34.085ZM162.622 33.5234V34.085C162.622 35.2731 162.744 36.3962 162.988 37.4541C163.232 38.512 163.615 39.4398 164.136 40.2373C164.657 41.0348 165.324 41.6615 166.138 42.1172C166.951 42.5729 167.92 42.8008 169.043 42.8008C170.133 42.8008 171.077 42.5729 171.875 42.1172C172.689 41.6615 173.356 41.0348 173.877 40.2373C174.398 39.4398 174.78 38.512 175.024 37.4541C175.285 36.3962 175.415 35.2731 175.415 34.085V33.5234C175.415 32.3516 175.285 31.2448 175.024 30.2031C174.78 29.1452 174.39 28.2093 173.853 27.3955C173.332 26.5817 172.664 25.9469 171.851 25.4912C171.053 25.0192 170.101 24.7832 168.994 24.7832C167.887 24.7832 166.927 25.0192 166.113 25.4912C165.316 25.9469 164.657 26.5817 164.136 27.3955C163.615 28.2093 163.232 29.1452 162.988 30.2031C162.744 31.2448 162.622 32.3516 162.622 33.5234ZM193.408 41.1406L199.512 20.584H203.271L202.246 26.7363L196.094 47H192.725L193.408 41.1406ZM189.819 20.584L194.58 41.2383L194.971 47H191.211L184.058 20.584H189.819ZM208.984 40.9941L213.599 20.584H219.336L212.207 47H208.447L208.984 40.9941ZM203.906 20.584L209.937 40.8965L210.693 47H207.324L201.099 26.7119L200.073 20.584H203.906Z" fill="white"/>
<g clip-path="url(#clip0_130_2)">
<path fill-rule="evenodd" clip-rule="evenodd" d="M295.679 83.2823C295.835 83.44 296.022 83.5653 296.227 83.6509C296.432 83.7365 296.652 83.7809 296.874 83.7813C297.096 83.7818 297.317 83.7384 297.522 83.6537C297.728 83.5689 297.914 83.4444 298.072 83.2874L311.619 69.7971C311.937 69.4804 312.116 69.0504 312.117 68.6017C312.118 68.1529 311.941 67.7222 311.624 67.4042C311.308 67.0862 310.878 66.9071 310.429 66.9061C309.98 66.9052 309.549 67.0825 309.231 67.3991L298.576 78.0127L298.646 44.9149C298.651 42.674 297.765 40.523 296.184 38.9351C294.603 37.3472 292.456 36.4524 290.215 36.4477L263.177 36.3905C262.729 36.3895 262.298 36.5666 261.981 36.8829C261.663 37.1991 261.484 37.6286 261.483 38.0768C261.482 38.5249 261.66 38.9551 261.976 39.2727C262.292 39.5903 262.722 39.7692 263.17 39.7702L290.208 39.8274C291.552 39.8303 292.84 40.3671 293.789 41.3199C294.738 42.2726 295.269 43.5632 295.266 44.9078L295.196 78.0055L284.586 67.347C284.27 67.029 283.84 66.8498 283.391 66.8489C282.942 66.8479 282.511 67.0253 282.193 67.3419C281.875 67.6586 281.696 68.0886 281.695 68.5373C281.694 68.9861 281.872 69.4168 282.188 69.7348L295.679 83.2823V83.2823Z" fill="white"/>
</g>
<defs>
<clipPath id="clip0_130_2">
<rect width="54.0759" height="54.0759" fill="white" transform="translate(312.19 33.1144) rotate(90.1213)"/>
</clipPath>
</defs>
</svg>
